<svg width="1091" height="417" viewBox="0 0 1091 417" fill="none" xmlns="http://www.w3.org/2000/svg">
<path d="M17.8032 31.7415H35.6957V179.092H17.8032V31.7415ZM93.5833 31.7415H115.686L51.9042 100.786L118.843 179.092H96.7408L30.2227 101.207L93.5833 31.7415ZM169.875 134.887L176.19 118.047H241.445L247.76 134.887H169.875ZM208.397 65.0005L183.557 123.52L181.873 127.309L159.981 179.092H139.984L208.397 24.374L276.809 179.092H256.812L235.341 128.572L233.657 124.362L208.397 65.0005ZM313.68 31.7415H331.572V179.092H313.68V31.7415ZM404.641 79.5251L393.695 179.092H375.802L393.695 24.374L452.635 131.098L511.575 24.374L529.467 179.092H511.575L500.629 79.5251L452.635 165.409L404.641 79.5251ZM584.107 105.417C584.107 116.503 586.493 126.397 591.264 135.097C596.176 143.798 602.841 150.674 611.262 155.726C619.682 160.778 629.224 163.304 639.89 163.304C650.695 163.304 660.238 160.778 668.518 155.726C676.938 150.674 683.533 143.798 688.305 135.097C693.216 126.397 695.672 116.503 695.672 105.417C695.672 94.3303 693.216 84.4368 688.305 75.7361C683.533 67.0354 676.938 60.159 668.518 55.107C660.238 50.055 650.695 47.529 639.89 47.529C629.224 47.529 619.682 50.055 611.262 55.107C602.841 60.159 596.176 67.0354 591.264 75.7361C586.493 84.4368 584.107 94.3303 584.107 105.417ZM565.162 105.417C565.162 94.6109 566.986 84.6473 570.635 75.5256C574.424 66.2635 579.686 58.2645 586.422 51.5285C593.158 44.6522 601.087 39.3195 610.209 35.5305C619.331 31.6011 629.224 29.6365 639.89 29.6365C650.695 29.6365 660.589 31.6011 669.57 35.5305C678.692 39.3195 686.621 44.6522 693.357 51.5285C700.093 58.2645 705.285 66.2635 708.934 75.5256C712.723 84.6473 714.617 94.6109 714.617 105.417C714.617 116.082 712.723 126.046 708.934 135.308C705.285 144.57 700.093 152.639 693.357 159.515C686.621 166.251 678.692 171.584 669.57 175.513C660.589 179.302 650.695 181.197 639.89 181.197C629.224 181.197 619.331 179.302 610.209 175.513C601.087 171.584 593.158 166.251 586.422 159.515C579.686 152.639 574.424 144.57 570.635 135.308C566.986 126.046 565.162 116.082 565.162 105.417ZM870.396 31.7415H888.288V186.459L776.723 69.4211V179.092H758.831V24.374L870.396 141.412V31.7415ZM951.521 105.417C951.521 116.503 953.906 126.397 958.678 135.097C963.589 143.798 970.255 150.674 978.675 155.726C987.095 160.778 996.638 163.304 1007.3 163.304C1018.11 163.304 1027.65 160.778 1035.93 155.726C1044.35 150.674 1050.95 143.798 1055.72 135.097C1060.63 126.397 1063.09 116.503 1063.09 105.417C1063.09 94.3303 1060.63 84.4368 1055.72 75.7361C1050.95 67.0354 1044.35 60.159 1035.93 55.107C1027.65 50.055 1018.11 47.529 1007.3 47.529C996.638 47.529 987.095 50.055 978.675 55.107C970.255 60.159 963.589 67.0354 958.678 75.7361C953.906 84.4368 951.521 94.3303 951.521 105.417ZM932.576 105.417C932.576 94.6109 934.4 84.6473 938.049 75.5256C941.838 66.2635 947.1 58.2645 953.836 51.5285C960.572 44.6522 968.501 39.3195 977.623 35.5305C986.744 31.6011 996.638 29.6365 1007.3 29.6365C1018.11 29.6365 1028 31.6011 1036.98 35.5305C1046.11 39.3195 1054.03 44.6522 1060.77 51.5285C1067.51 58.2645 1072.7 66.2635 1076.35 75.5256C1080.14 84.6473 1082.03 94.6109 1082.03 105.417C1082.03 116.082 1080.14 126.046 1076.35 135.308C1072.7 144.57 1067.51 152.639 1060.77 159.515C1054.03 166.251 1046.11 171.584 1036.98 175.513C1028 179.302 1018.11 181.197 1007.3 181.197C996.638 181.197 986.744 179.302 977.623 175.513C968.501 171.584 960.572 166.251 953.836 159.515C947.1 152.639 941.838 144.57 938.049 135.308C934.4 126.046 932.576 116.082 932.576 105.417Z" fill="white"/>
<path d="M18.2105 392.572C19.7403 394.936 21.9654 396.744 24.8859 397.996C27.6673 399.386 30.9355 400.082 34.6904 400.082C37.889 400.082 41.0181 398.622 44.0777 395.701C47.2763 392.92 48.8756 388.122 48.8756 381.307V224.853H65.5641V383.393C65.5641 389.095 64.7992 394.032 63.2694 398.204C61.8787 402.376 59.7926 405.853 57.0112 408.635C54.2298 411.416 50.8226 413.433 46.7895 414.684C42.8956 416.075 38.5148 416.77 33.6474 416.77C30.0315 416.77 26.5548 416.144 23.2171 414.893C19.7403 413.78 16.8198 412.39 14.4556 410.721C11.9524 409.191 10.1445 407.731 9.03189 406.34L18.2105 392.572ZM117.764 224.853H135.496V370.877H117.764V224.853ZM127.569 241.541V224.853H157.4C166.856 224.853 175.27 226.661 182.641 230.277C190.151 233.753 196.061 238.76 200.372 245.296C204.823 251.833 207.048 259.621 207.048 268.66C207.048 277.561 204.823 285.349 200.372 292.024C196.061 298.56 190.151 303.636 182.641 307.252C175.27 310.729 166.856 312.467 157.4 312.467H127.569V295.779H157.4C166.856 295.779 174.505 293.484 180.346 288.895C186.326 284.306 189.316 277.561 189.316 268.66C189.316 259.621 186.326 252.876 180.346 248.425C174.505 243.836 166.856 241.541 157.4 241.541H127.569ZM361.385 224.853H379.117V378.178L268.555 262.193V370.877H250.824V217.552L361.385 333.537V224.853ZM415.704 329.156V313.51H457.425V329.156H415.704ZM499.347 326.653C502.685 332.493 506.161 337.639 509.777 342.089C513.532 346.54 517.704 350.016 522.293 352.52C526.883 355.023 532.098 356.275 537.939 356.275C545.727 356.275 551.985 354.119 556.713 349.808C561.442 345.497 563.806 340.003 563.806 333.328C563.806 326.792 562.276 321.576 559.217 317.682C556.157 313.788 552.124 310.659 547.118 308.295C542.25 305.792 537.035 303.567 531.472 301.62C527.856 300.368 523.823 298.769 519.373 296.822C514.923 294.736 510.681 292.163 506.648 289.103C502.615 285.905 499.277 282.011 496.635 277.422C494.132 272.832 492.88 267.2 492.88 260.524C492.88 253.293 494.688 246.826 498.304 241.124C501.92 235.422 506.926 230.972 513.323 227.773C519.721 224.436 527.022 222.767 535.227 222.767C543.154 222.767 550.038 224.297 555.879 227.356C561.859 230.277 566.935 234.101 571.107 238.829C575.279 243.419 578.548 248.286 580.912 253.432L565.683 262.193C563.876 258.577 561.581 255.031 558.8 251.554C556.018 248.078 552.611 245.227 548.578 243.002C544.684 240.776 539.886 239.664 534.184 239.664C526.257 239.664 520.486 241.611 516.87 245.505C513.254 249.26 511.446 253.501 511.446 258.23C511.446 262.263 512.489 266.018 514.575 269.495C516.661 272.832 520.138 276.031 525.005 279.09C530.012 282.011 536.757 284.931 545.24 287.852C549.134 289.243 553.237 291.05 557.548 293.276C561.859 295.501 565.823 298.352 569.438 301.828C573.193 305.166 576.253 309.269 578.617 314.136C580.981 318.865 582.163 324.566 582.163 331.242C582.163 337.639 580.912 343.411 578.408 348.556C576.044 353.702 572.707 358.082 568.395 361.698C564.223 365.314 559.425 368.096 554.002 370.043C548.717 371.99 543.154 372.963 537.313 372.963C529.386 372.963 522.015 371.294 515.201 367.956C508.525 364.48 502.615 359.96 497.469 354.397C492.463 348.695 488.36 342.646 485.162 336.248L499.347 326.653ZM636.787 299.951V283.263H736.918V299.951H636.787ZM725.027 224.853H742.759V370.877H725.027V224.853ZM626.983 224.853H644.714V370.877H626.983V224.853ZM805.308 297.865C805.308 308.851 807.672 318.656 812.401 327.278C817.268 335.901 823.874 342.715 832.218 347.722C840.562 352.728 850.019 355.232 860.589 355.232C871.297 355.232 880.754 352.728 888.959 347.722C897.303 342.715 903.84 335.901 908.568 327.278C913.435 318.656 915.869 308.851 915.869 297.865C915.869 286.878 913.435 277.074 908.568 268.451C903.84 259.829 897.303 253.015 888.959 248.008C880.754 243.002 871.297 240.498 860.589 240.498C850.019 240.498 840.562 243.002 832.218 248.008C823.874 253.015 817.268 259.829 812.401 268.451C807.672 277.074 805.308 286.878 805.308 297.865ZM786.534 297.865C786.534 287.156 788.341 277.282 791.957 268.243C795.712 259.064 800.927 251.137 807.603 244.462C814.278 237.647 822.136 232.363 831.175 228.608C840.215 224.714 850.019 222.767 860.589 222.767C871.297 222.767 881.101 224.714 890.002 228.608C899.042 232.363 906.899 237.647 913.574 244.462C920.25 251.137 925.395 259.064 929.011 268.243C932.766 277.282 934.644 287.156 934.644 297.865C934.644 308.434 932.766 318.308 929.011 327.487C925.395 336.666 920.25 344.662 913.574 351.477C906.899 358.152 899.042 363.437 890.002 367.331C881.101 371.086 871.297 372.963 860.589 372.963C850.019 372.963 840.215 371.086 831.175 367.331C822.136 363.437 814.278 358.152 807.603 351.477C800.927 344.662 795.712 336.666 791.957 327.487C788.341 318.308 786.534 308.434 786.534 297.865ZM978.459 224.853H996.19V370.877H978.459V224.853ZM988.263 241.541V224.853H1018.09C1027.55 224.853 1035.96 226.661 1043.34 230.277C1050.85 233.753 1056.76 238.76 1061.07 245.296C1065.52 251.833 1067.74 259.621 1067.74 268.66C1067.74 277.561 1065.52 285.349 1061.07 292.024C1056.76 298.56 1050.85 303.636 1043.34 307.252C1035.96 310.729 1027.55 312.467 1018.09 312.467H988.263V295.779H1018.09C1027.55 295.779 1035.2 293.484 1041.04 288.895C1047.02 284.306 1050.01 277.561 1050.01 268.66C1050.01 259.621 1047.02 252.876 1041.04 248.425C1035.2 243.836 1027.55 241.541 1018.09 241.541H988.263Z" fill="white"/>
<circle cx="858.207" cy="298.479" r="69.0233" fill="white"/>
</svg>
